<svg version="1.2" xmlns="http://www.w3.org/2000/svg" viewBox="0 0 1920 1080" width="1920" height="1080">
	<title>New Project</title>
	<style>
		.s0 { fill: #000000 } 
		.s1 { fill: #454545 } 
	</style>
	<path id="MATH" class="s0" aria-label="MATH"  d="m587.3 234h-30.4v-54.9l-15.3 20.7-12.2 1.7-18.3-22.4v54.9h-30.4v-113.4h20.8l34.2 43.2 31.4-43.2h20.2zm81.9-46.2l-11.4-30.9-10.8 30.9zm-26-67.2h30.3l42.4 110.4-29.9 3-8.1-22.4h-39.2l-7.9 22.4h-30.2zm139.8 113.4h-30.4v-89.6h-33.3v-23.8h97.1l2.8 23.8h-36.2zm151.6 0h-30.4v-44.3h-41.3v44.3h-30.4v-113.4l30.4-1v46.2h41.3v-45.2h30.4z"/>
	<path id="R∞MS" class="s1" aria-label="R∞MS"  d="m976.5 138.6h-13.3v34.7h13.7q9.6 0 16-3.8 6.3-4 6.3-13.1 0-9.5-6-13.6-6-4.2-16.7-4.2zm54.1 95.4h-23l-24.1-43.4q-1.8 0.2-3.8 0.4-2 0-4 0h-12.5v43h-21.5v-113.4h35.5q18.5 0 31.7 8.5 13.2 8.5 13.2 26.3 0 10.6-5.5 18.2-5.4 7.5-13.9 11.7zm267.4-35.5l-8.3 1.1-27.2-34.8v69.2h-21.5v-113.4h13.7l38.3 52.4 34.9-52.4h13.2v113.4h-21.9v-65.4zm65.9 28l4.8-17.5q5.2 2.7 13.2 5.4 8 2.6 15.2 2.6 10.2 0 15.2-3.1 5.1-3.2 5.1-9.2 0-5.7-6.8-10-6.7-4.5-14.9-8.7-12-6.2-23-14.5-11-8.3-10.8-23.2 0.2-12.8 10.2-21.5 10.1-8.8 28.8-8.8 8.5 0 17 2.6 8.5 2.7 15 5.9l-7.1 17.3q-5.2-2.5-11.2-4.6-6-2.4-13.4-2.4-7.1 0-12.1 2.9-4.9 2.8-4.9 8.6 0 6.4 6.4 10.5 6.3 4.2 15 8.9 12.2 6.1 23.2 14.5 11.1 8.3 11 22.8-0.2 13.5-11 22.4-10.9 8.8-31.4 8.8-7.2 0-18.5-3.2-11.2-3.1-15-6.5z"/>
	<path id="R∞MS" class="s0" aria-label="R∞MS"  d="m1193.2 173.5q0-9.7-7-16.7-7-7.2-18.1-7.2-10 0-17.2 10-7.2 9.7-10.3 20.4l-0.7 3.5q4.5 7.7 11.9 12.4 7.7 4.6 16.3 4.8 11.1 0 18.1-8.1 7-8.1 7-19.1zm-127.2 3.7q0 9.8 6.9 17 7 7.2 18.2 7.2 10 0 17.2-9.7 7.2-10 10.2-21l0.7-3.7q-4.4-7.2-12.1-11.9-7.4-4.6-16-4.8-11.2 0-18.2 8.1-6.9 8.1-6.9 18.8zm24.6-52.1q11.9 0 22.4 4.9 10.4 4.9 18.3 13.5 6.3-7.9 15.8-13.2 9.6-5.4 21-5.4 22.3 0 37 13.7 14.6 13.5 14.6 35.4 0 21.6-14.6 36.7-14.5 14.9-36.6 14.9-11.6 0-22-4.9-10.5-4.8-18.4-13.5-6.5 8-16.1 13.5-9.3 5.4-20.9 5.4-22.3 0-37-13.7-14.7-13.8-14.7-35.4 0-21.6 14.5-36.7 14.6-15.2 36.7-15.2z"/>
</svg>